<?xml version="1.0" standalone="no"?>
<!DOCTYPE svg PUBLIC "-//W3C//DTD SVG 20010904//EN"
 "http://www.w3.org/TR/2001/REC-SVG-20010904/DTD/svg10.dtd">
<svg version="1.0" xmlns="http://www.w3.org/2000/svg"
 width="322.000000pt" height="309.000000pt" viewBox="0 0 322.000000 309.000000"
 preserveAspectRatio="xMidYMid meet">

<g transform="translate(0.000000,309.000000) scale(0.100000,-0.100000)"
fill="#000000" stroke="none">
<path d="M1415 2943 c-211 -25 -347 -58 -460 -113 -155 -75 -205 -141 -205
-274 0 -115 18 -257 47 -365 14 -53 27 -107 29 -121 3 -20 -60 -117 -306 -470
-270 -386 -313 -453 -332 -513 -57 -188 32 -386 212 -471 l65 -31 1274 -3
c1178 -2 1275 -1 1293 14 23 22 23 66 0 87 -17 16 -119 17 -1259 17 -1381 0
-1300 -4 -1383 68 -148 126 -118 363 57 449 l58 28 1254 3 c1145 2 1256 4
1273 19 23 20 23 51 1 83 -9 14 -115 148 -236 298 -120 150 -220 279 -223 286
-3 8 7 18 25 26 16 6 47 28 67 48 89 86 110 217 53 331 -43 86 -105 132 -210
155 -25 5 -27 10 -31 78 -5 83 -20 117 -74 171 -130 129 -441 209 -802 206
-86 -1 -170 -4 -187 -6z m500 -137 c191 -32 358 -96 411 -158 21 -25 24 -40
24 -101 0 -95 -24 -264 -50 -357 -11 -41 -42 -118 -67 -170 -40 -80 -61 -109
-137 -185 -104 -104 -181 -149 -320 -189 -109 -32 -203 -34 -311 -5 -341 89
-544 364 -584 790 -16 168 -15 173 21 214 72 82 269 148 521 175 111 12 381 4
492 -14z m635 -458 c57 -39 75 -72 75 -137 0 -102 -66 -161 -181 -161 -41 0
-54 3 -50 13 14 35 46 149 56 202 19 107 19 105 44 105 13 0 38 -10 56 -22z
m-1607 -491 c25 -35 82 -98 126 -139 130 -123 329 -210 511 -225 134 -10 343
53 485 148 80 53 184 158 230 232 29 45 32 47 77 47 l48 0 125 -157 c69 -87
165 -207 213 -266 48 -59 89 -112 90 -117 2 -7 -419 -10 -1168 -10 l-1172 0
34 48 c19 26 105 149 192 275 87 125 160 227 161 227 2 0 24 -28 48 -63z"/>
<path d="M1348 2764 c-281 -43 -438 -142 -371 -232 79 -106 309 -166 638 -166
263 1 445 35 569 108 179 105 35 240 -309 291 -124 18 -407 18 -527 -1z"/>
<path d="M447 1153 c-11 -11 -8 -48 5 -61 9 -9 291 -12 1209 -12 1296 0 1225
-3 1217 52 l-3 23 -1211 3 c-666 1 -1214 -1 -1217 -5z"/>
<path d="M447 993 c-11 -11 -8 -48 5 -61 9 -9 291 -12 1209 -12 1296 0 1225
-3 1217 52 l-3 23 -1211 3 c-666 1 -1214 -1 -1217 -5z"/>
<path d="M458 839 c-24 -13 -23 -56 1 -69 27 -14 2375 -14 2402 0 25 14 25 56
0 70 -27 14 -2379 13 -2403 -1z"/>
<path d="M1088 483 c-3 -4 -4 -89 -4 -188 1 -153 3 -180 16 -180 10 0 17 14
20 44 3 30 12 48 27 58 20 14 23 11 64 -46 24 -34 49 -61 56 -61 25 0 13 42
-27 98 l-40 56 41 42 c38 39 45 64 16 64 -7 0 -37 -25 -67 -55 l-55 -56 -5
113 c-4 95 -8 113 -22 116 -9 2 -18 -1 -20 -5z"/>
<path d="M310 470 c-19 -12 -36 -326 -19 -347 25 -29 154 -5 199 37 43 40 37
78 -15 108 -13 7 -12 14 6 47 32 63 13 117 -53 151 -31 16 -96 18 -118 4z
m103 -51 c28 -15 37 -28 37 -56 0 -30 -45 -63 -88 -63 -33 0 -34 1 -28 31 3
17 6 47 6 65 0 30 3 34 26 34 14 0 35 -5 47 -11z m22 -183 c19 -8 35 -20 35
-25 0 -18 -45 -41 -93 -47 l-47 -7 0 47 0 46 35 0 c20 0 51 -7 70 -14z"/>
<path d="M1567 473 c-10 -17 -18 -339 -8 -352 5 -8 16 -11 25 -8 12 5 16 20
16 62 0 30 2 55 4 55 17 0 100 -44 139 -74 53 -40 62 -43 71 -20 6 16 -28 54
-76 82 -16 9 -28 19 -28 22 0 3 15 14 34 24 40 21 60 61 51 99 -9 36 -75 93
-122 106 -44 13 -100 14 -106 4z m124 -63 c42 -22 66 -58 55 -85 -8 -21 -66
-45 -110 -45 l-35 0 2 75 c2 71 3 75 25 75 12 0 41 -9 63 -20z"/>
<path d="M2374 455 c-4 -9 -2 -21 4 -27 15 -15 44 -1 40 19 -4 23 -36 29 -44
8z"/>
<path d="M1395 357 c-47 -17 -62 -28 -69 -50 -13 -35 1 -59 40 -71 57 -17 75
-26 81 -42 3 -9 0 -20 -8 -25 -20 -12 -83 -11 -96 2 -15 15 -43 4 -43 -15 0
-26 58 -49 107 -43 55 6 83 30 83 72 0 40 -31 69 -88 85 -48 12 -47 25 4 46
45 19 54 18 54 -6 0 -21 24 -28 35 -10 3 5 3 25 -1 45 -7 41 -16 42 -99 12z"/>
<path d="M616 339 c-66 -52 -74 -150 -17 -201 44 -39 84 -37 127 6 31 31 34
39 34 96 0 55 -3 65 -29 91 -35 35 -77 38 -115 8z m94 -48 c15 -30 12 -92 -7
-113 -20 -22 -56 -23 -77 -2 -23 23 -21 89 4 114 26 26 66 26 80 1z"/>
<path d="M866 339 c-66 -52 -74 -150 -17 -201 44 -39 84 -37 127 6 31 31 34
39 34 96 0 55 -3 65 -29 91 -35 35 -77 38 -115 8z m94 -48 c15 -30 12 -92 -7
-113 -20 -22 -56 -23 -77 -2 -23 23 -21 89 4 114 26 26 66 26 80 1z"/>
<path d="M1905 338 c-33 -26 -55 -75 -55 -123 0 -80 100 -130 179 -88 43 22
60 48 44 64 -9 9 -18 6 -39 -10 -30 -23 -70 -27 -109 -9 -40 18 -30 32 41 58
76 28 102 56 84 90 -23 43 -101 53 -145 18z m105 -38 c11 -7 4 -13 -30 -28
-95 -41 -115 -36 -65 13 25 26 68 32 95 15z"/>
<path d="M2110 342 c0 -11 6 -35 14 -53 7 -19 26 -67 41 -107 19 -50 32 -72
42 -70 17 3 105 203 101 227 -2 9 -10 16 -18 16 -12 0 -34 -42 -70 -140 -11
-30 -12 -29 -43 55 -22 56 -38 86 -50 88 -11 2 -17 -3 -17 -16z"/>
<path d="M2366 345 c-3 -9 -6 -61 -6 -116 0 -82 3 -101 16 -106 26 -10 31 12
30 125 -1 90 -4 107 -17 110 -9 2 -19 -4 -23 -13z"/>
<path d="M2525 338 c-33 -26 -55 -75 -55 -123 0 -80 100 -130 179 -88 43 22
60 48 44 64 -9 9 -18 6 -39 -10 -30 -23 -70 -27 -109 -9 -40 18 -30 32 41 58
76 28 102 56 84 90 -23 43 -101 53 -145 18z m105 -38 c11 -7 4 -13 -30 -28
-95 -41 -115 -36 -65 13 25 26 68 32 95 15z"/>
<path d="M2734 345 c-4 -9 1 -58 11 -109 27 -152 51 -162 94 -41 13 36 27 65
31 65 4 0 10 -22 13 -48 12 -102 52 -134 80 -64 25 64 58 192 52 202 -3 6 -12
10 -20 10 -14 0 -20 -17 -45 -127 -7 -29 -15 -53 -20 -53 -4 0 -10 24 -14 53
-20 156 -45 165 -90 32 l-30 -90 -8 60 c-15 113 -19 125 -34 125 -8 0 -17 -7
-20 -15z"/>
</g>
</svg>
